<!-- Generated by IcoMoon.io -->
<svg version="1.1" xmlns="http://www.w3.org/2000/svg" width="38" height="32" viewBox="0 0 38 32">
<path fill="none" stroke-linejoin="round" stroke-linecap="round" stroke-miterlimit="4" stroke-width="0.5938" stroke="#000" d="M22.048 12.701v-5.278c-2.118 2.021-2.209 3.659-2.199 5.278h2.199zM22.048 12.701v2.639h-0.44v-1.32M17.21 7.863v7.478M15.89 7.863v1.32c0 0.35 0.139 0.686 0.387 0.933s0.583 0.386 0.933 0.386c0.35 0 0.686-0.139 0.933-0.386s0.386-0.583 0.386-0.933v-1.32"></path>
<path d="M9.713 24.577v-3.839h0.579v1.833h0.047l1.61-1.833h0.729l-1.548 1.728 1.554 2.111h-0.697l-1.241-1.715-0.454 0.521v1.194h-0.579zM13.354 24.577v-2.879h0.56v2.879h-0.56zM13.637 21.254c-0.097 0-0.181-0.032-0.251-0.097-0.069-0.066-0.103-0.145-0.103-0.236 0-0.092 0.034-0.171 0.103-0.236 0.070-0.066 0.154-0.099 0.251-0.099s0.181 0.033 0.249 0.099c0.070 0.065 0.105 0.144 0.105 0.236 0 0.091-0.035 0.17-0.105 0.236-0.069 0.065-0.152 0.097-0.249 0.097zM16.012 21.698v0.45h-1.573v-0.45h1.573zM14.861 21.008h0.56v2.724c0 0.109 0.016 0.191 0.049 0.246 0.033 0.054 0.074 0.091 0.126 0.111 0.052 0.019 0.109 0.028 0.171 0.028 0.045 0 0.084-0.003 0.118-0.009s0.060-0.011 0.079-0.015l0.101 0.463c-0.032 0.012-0.079 0.025-0.139 0.038-0.060 0.014-0.135 0.021-0.225 0.022-0.147 0.003-0.285-0.024-0.412-0.079s-0.231-0.14-0.309-0.255c-0.079-0.115-0.118-0.259-0.118-0.433v-2.84zM17.814 24.635c-0.279 0-0.519-0.063-0.72-0.189-0.2-0.127-0.354-0.303-0.461-0.527s-0.161-0.48-0.161-0.769c0-0.292 0.055-0.55 0.165-0.774 0.11-0.225 0.265-0.401 0.465-0.527s0.436-0.189 0.707-0.189c0.219 0 0.414 0.041 0.585 0.122 0.171 0.080 0.309 0.192 0.414 0.337 0.106 0.145 0.169 0.314 0.189 0.508h-0.545c-0.030-0.135-0.099-0.251-0.206-0.349-0.106-0.098-0.249-0.146-0.427-0.146-0.156 0-0.293 0.041-0.41 0.124-0.116 0.081-0.207 0.197-0.272 0.349-0.065 0.15-0.098 0.327-0.098 0.532 0 0.21 0.032 0.391 0.096 0.544s0.154 0.271 0.27 0.354c0.117 0.084 0.256 0.126 0.414 0.126 0.106 0 0.202-0.019 0.289-0.058 0.087-0.040 0.161-0.097 0.219-0.171 0.060-0.074 0.102-0.162 0.126-0.266h0.545c-0.020 0.186-0.081 0.352-0.182 0.499s-0.237 0.261-0.407 0.345c-0.169 0.084-0.367 0.126-0.594 0.126zM20.156 22.868v1.709h-0.56v-3.839h0.553v1.428h0.036c0.067-0.155 0.171-0.278 0.309-0.369s0.32-0.137 0.544-0.137c0.197 0 0.37 0.041 0.517 0.122 0.149 0.081 0.264 0.202 0.345 0.364 0.082 0.16 0.124 0.36 0.124 0.6v1.831h-0.56v-1.764c0-0.211-0.054-0.375-0.163-0.491-0.109-0.117-0.26-0.176-0.454-0.176-0.132 0-0.251 0.028-0.356 0.084-0.104 0.056-0.186 0.139-0.246 0.247-0.059 0.107-0.088 0.237-0.088 0.39zM24.012 24.635c-0.284 0-0.528-0.061-0.733-0.182-0.204-0.122-0.361-0.294-0.472-0.515-0.11-0.222-0.165-0.483-0.165-0.782 0-0.295 0.055-0.555 0.165-0.78 0.111-0.225 0.266-0.401 0.465-0.527 0.2-0.126 0.434-0.189 0.701-0.189 0.162 0 0.32 0.027 0.472 0.081s0.289 0.138 0.41 0.253c0.121 0.115 0.217 0.264 0.287 0.448 0.070 0.182 0.105 0.404 0.105 0.665v0.199h-2.289v-0.42h1.739c0-0.147-0.030-0.278-0.090-0.392-0.060-0.115-0.144-0.206-0.253-0.272-0.107-0.066-0.234-0.099-0.379-0.099-0.157 0-0.295 0.039-0.412 0.116-0.116 0.076-0.206 0.176-0.27 0.3-0.062 0.122-0.094 0.256-0.094 0.399v0.328c0 0.192 0.034 0.356 0.101 0.491 0.069 0.135 0.164 0.238 0.287 0.309 0.122 0.070 0.266 0.105 0.429 0.105 0.106 0 0.203-0.015 0.291-0.045 0.087-0.031 0.163-0.078 0.227-0.139s0.113-0.137 0.146-0.227l0.53 0.096c-0.043 0.156-0.119 0.293-0.229 0.41-0.109 0.116-0.246 0.207-0.41 0.272-0.164 0.064-0.351 0.096-0.56 0.096zM26.429 22.868v1.709h-0.56v-2.879h0.538v0.469h0.036c0.066-0.152 0.17-0.275 0.311-0.367 0.142-0.092 0.322-0.139 0.538-0.139 0.196 0 0.368 0.041 0.515 0.124 0.147 0.081 0.262 0.202 0.343 0.364s0.122 0.36 0.122 0.598v1.831h-0.56v-1.764c0-0.209-0.054-0.372-0.163-0.489-0.109-0.119-0.258-0.178-0.448-0.178-0.13 0-0.246 0.028-0.347 0.084-0.1 0.056-0.179 0.139-0.238 0.247-0.057 0.107-0.086 0.237-0.086 0.39z"></path>
</svg>
