<!-- Generated by IcoMoon.io -->
<svg version="1.1" xmlns="http://www.w3.org/2000/svg" width="38" height="32" viewBox="0 0 38 32">
<path d="M18.657 7.687c-0.446 0-0.878 0.159-1.222 0.448s-0.581 0.693-0.668 1.141l-0.034 0.178c-0.009 0.040-0.010 0.081-0.004 0.121s0.021 0.079 0.043 0.113c0.022 0.034 0.050 0.064 0.082 0.087s0.070 0.039 0.109 0.047c0.039 0.008 0.079 0.008 0.118-0s0.076-0.025 0.109-0.048c0.033-0.023 0.061-0.053 0.082-0.088s0.036-0.073 0.042-0.113l0.035-0.177c0.066-0.332 0.25-0.628 0.516-0.829s0.595-0.294 0.924-0.261c0.329 0.034 0.634 0.191 0.856 0.442s0.346 0.578 0.347 0.917c0 0.363-0.141 0.712-0.391 0.969s-0.59 0.402-0.945 0.402h-4.305c-0.079 0-0.154 0.032-0.21 0.089s-0.087 0.135-0.087 0.215c0 0.081 0.031 0.158 0.087 0.215s0.131 0.089 0.21 0.089h4.305c0.504-0.013 0.982-0.227 1.334-0.596s0.549-0.866 0.549-1.382c0-0.517-0.197-1.013-0.548-1.383s-0.83-0.584-1.334-0.597zM22.070 10.427c-0.394 0-0.771 0.16-1.050 0.446s-0.435 0.673-0.435 1.077c0 0.081 0.031 0.158 0.087 0.215s0.131 0.089 0.21 0.089c0.079 0 0.154-0.032 0.21-0.089s0.087-0.135 0.087-0.215c0-0.181 0.052-0.357 0.15-0.508s0.237-0.267 0.4-0.337c0.163-0.069 0.342-0.087 0.515-0.052s0.331 0.122 0.456 0.25c0.125 0.128 0.209 0.291 0.244 0.468s0.017 0.361-0.051 0.528c-0.067 0.167-0.182 0.31-0.328 0.41s-0.319 0.154-0.495 0.154h-7.72c-0.079 0-0.154 0.032-0.21 0.089s-0.087 0.135-0.087 0.215c0 0.081 0.031 0.158 0.087 0.215s0.131 0.089 0.21 0.089h5.79c0.197 0 0.386 0.081 0.524 0.224s0.217 0.337 0.216 0.539c-0 0.202-0.079 0.395-0.218 0.538s-0.328 0.222-0.525 0.222c-0.177 0-0.349-0.064-0.485-0.181s-0.226-0.28-0.256-0.459l-0.003-0.018c-0.005-0.040-0.019-0.079-0.039-0.114s-0.047-0.066-0.079-0.090c-0.032-0.024-0.068-0.042-0.107-0.051s-0.079-0.011-0.118-0.004c-0.039 0.007-0.077 0.021-0.11 0.043s-0.063 0.050-0.085 0.084c-0.023 0.034-0.038 0.071-0.047 0.111s-0.008 0.081-0.001 0.121l0.003 0.018c0.053 0.322 0.215 0.613 0.458 0.824s0.55 0.326 0.868 0.326c0.355 0 0.695-0.144 0.946-0.401s0.392-0.606 0.393-0.969c0-0.282-0.083-0.544-0.225-0.761h0.819c0.394 0 0.771-0.16 1.050-0.446s0.435-0.673 0.435-1.077-0.156-0.791-0.435-1.077c-0.278-0.286-0.656-0.446-1.050-0.446z"></path>
<path d="M18.657 7.687l0.042-1.649-0.021-0.001h-0.021l0 1.649zM16.766 9.276l-1.619-0.316-0.001 0.003 1.619 0.314zM16.732 9.454l1.607 0.37 0.006-0.028 0.005-0.028-1.619-0.314zM17.314 9.573l-1.618-0.32-0.006 0.029-0.005 0.030 1.629 0.261zM17.349 9.396v0zM19.992 9.665h1.649v-0.004l-1.649 0.004zM18.656 11.036v1.649h0.001l-0.001-1.649zM14.054 11.341v0zM18.656 11.645v1.649h0.021l0.021-0.001-0.041-1.649zM21.179 11.95v0zM14.054 13.168v0zM20.14 13.473l0.003-1.649h-0.003v1.649zM20.137 14.995l0.003-1.649h-0.005l0.001 1.649zM19.397 14.354l-1.628 0.265 0 0.003 0 0.003 1.627-0.27zM19.394 14.336l-1.635 0.216 0.003 0.024 0.004 0.024 1.628-0.265zM18.808 14.436l1.628-0.265-0.004-0.024-0.005-0.024-1.62 0.312zM18.811 14.454l-1.628 0.265 0 0.003 1.628-0.267zM20.137 15.604l0.001-1.649h-0.001l0 1.649zM21.476 14.234l1.649 0.003v-0.003h-1.649zM21.251 13.473v-1.649h-3.046l1.665 2.551 1.381-0.902zM18.657 6.037c-0.838 0-1.645 0.298-2.283 0.835l2.123 2.525c0.051-0.043 0.108-0.061 0.161-0.061l-0.001-3.299zM16.373 6.872c-0.638 0.536-1.067 1.275-1.226 2.088l3.238 0.632c0.016-0.084 0.059-0.151 0.111-0.195l-2.123-2.525zM15.147 8.963l-0.034 0.178 3.239 0.627 0.034-0.178-3.239-0.627zM15.124 9.084c-0.058 0.25-0.066 0.51-0.023 0.763l3.254-0.543c0.029 0.173 0.023 0.349-0.016 0.52l-3.215-0.74zM15.101 9.847c0.042 0.253 0.134 0.497 0.272 0.717l2.796-1.751c0.095 0.151 0.157 0.318 0.186 0.491l-3.254 0.543zM15.373 10.564c0.138 0.22 0.319 0.412 0.535 0.563l1.891-2.703c0.15 0.105 0.275 0.238 0.37 0.389l-2.796 1.751zM15.908 11.127c0.216 0.151 0.462 0.258 0.723 0.311l0.663-3.232c0.183 0.038 0.355 0.112 0.505 0.217l-1.891 2.703zM16.631 11.438c0.261 0.054 0.531 0.053 0.792-0.003l-0.684-3.227c0.183-0.039 0.372-0.039 0.555-0.002l-0.663 3.232zM17.423 11.436c0.261-0.055 0.506-0.164 0.721-0.316l-1.909-2.69c0.149-0.106 0.321-0.182 0.503-0.221l0.684 3.227zM18.144 11.12c0.215-0.152 0.395-0.346 0.531-0.567l-2.807-1.732c0.094-0.152 0.218-0.285 0.367-0.391l1.909 2.69zM18.675 10.553c0.136-0.221 0.226-0.465 0.267-0.719l-3.257-0.522c0.028-0.173 0.089-0.34 0.183-0.492l2.807 1.732zM18.932 9.893l0.035-0.177-3.236-0.64-0.035 0.177 3.236 0.64zM18.967 9.717c-0.011 0.058-0.045 0.119-0.107 0.166l-1.991-2.631c-0.594 0.45-0.995 1.102-1.138 1.824l3.236 0.641zM18.86 9.882c-0.063 0.048-0.148 0.074-0.238 0.065l0.334-3.282c-0.748-0.076-1.492 0.136-2.087 0.587l1.991 2.631zM18.622 9.947c-0.089-0.009-0.163-0.051-0.212-0.106l2.47-2.187c-0.493-0.556-1.177-0.914-1.924-0.99l-0.334 3.282zM18.41 9.842c-0.047-0.053-0.068-0.115-0.068-0.172l3.299-0.008c-0.002-0.736-0.269-1.451-0.761-2.006l-2.47 2.187zM18.342 9.665c0-0.061 0.023-0.127 0.077-0.182l2.363 2.302c0.555-0.569 0.859-1.333 0.859-2.12h-3.299zM18.419 9.483c0.055-0.057 0.139-0.096 0.236-0.097l0.002 3.299c0.805-0 1.569-0.329 2.125-0.9l-2.363-2.302zM18.656 9.387h-4.305v3.299h4.305v-3.299zM14.351 9.387c-0.53 0-1.029 0.216-1.391 0.587l2.362 2.303c-0.25 0.257-0.599 0.409-0.971 0.409v-3.299zM12.96 9.974c-0.36 0.37-0.555 0.862-0.555 1.367h3.299c0 0.343-0.133 0.681-0.382 0.936l-2.362-2.303zM12.404 11.341c0 0.505 0.195 0.997 0.555 1.367l2.362-2.303c0.249 0.255 0.382 0.593 0.382 0.936h-3.299zM12.96 12.708c0.362 0.371 0.861 0.587 1.391 0.587v-3.299c0.372 0 0.721 0.152 0.971 0.409l-2.362 2.303zM14.351 13.295h4.305v-3.299h-4.305v3.299zM18.697 13.294c0.947-0.024 1.839-0.426 2.488-1.108l-2.39-2.274c-0.055 0.058-0.121 0.083-0.181 0.085l0.083 3.298zM21.185 12.186c0.648-0.68 1.003-1.585 1.004-2.519l-3.299-0.001c-0 0.099-0.038 0.187-0.094 0.246l2.39 2.274zM22.188 9.667c0-0.934-0.355-1.839-1.002-2.52l-2.391 2.273c0.056 0.059 0.094 0.147 0.094 0.246l3.299 0.001zM21.186 7.147c-0.648-0.682-1.54-1.085-2.487-1.11l-0.085 3.298c0.060 0.002 0.126 0.027 0.181 0.085l2.391-2.273zM22.070 8.778c-0.845 0-1.646 0.345-2.231 0.944l2.362 2.303c-0.027 0.028-0.074 0.052-0.131 0.052v-3.299zM19.839 9.722c-0.583 0.598-0.903 1.4-0.903 2.228h3.299c0 0.020-0.008 0.048-0.034 0.075l-2.362-2.303zM18.936 11.95c0 0.505 0.195 0.997 0.555 1.367l2.362-2.303c0.249 0.255 0.381 0.593 0.381 0.936h-3.299zM19.492 13.317c0.362 0.371 0.861 0.587 1.391 0.587v-3.299c0.372 0 0.721 0.152 0.971 0.409l-2.362 2.303zM20.883 13.904c0.53 0 1.029-0.216 1.391-0.587l-2.362-2.303c0.25-0.257 0.599-0.409 0.971-0.409v3.299zM22.273 13.317c0.36-0.37 0.555-0.862 0.555-1.367h-3.299c0-0.343 0.133-0.681 0.381-0.936l2.362 2.303zM22.829 11.95c0 0.136-0.039 0.273-0.117 0.393l-2.764-1.801c-0.274 0.42-0.418 0.91-0.418 1.408h3.299zM22.712 12.343c-0.078 0.12-0.194 0.22-0.337 0.281l-1.29-3.036c-0.469 0.199-0.863 0.534-1.137 0.954l2.764 1.801zM22.374 12.624c-0.144 0.061-0.305 0.078-0.46 0.046l0.659-3.232c-0.501-0.102-1.020-0.049-1.489 0.15l1.29 3.036zM21.914 12.67c-0.155-0.032-0.292-0.109-0.395-0.215l2.362-2.303c-0.352-0.361-0.807-0.613-1.307-0.715l-0.659 3.232zM21.519 12.455c-0.103-0.105-0.168-0.235-0.195-0.37l3.239-0.628c-0.095-0.489-0.33-0.944-0.682-1.305l-2.362 2.303zM21.324 12.086c-0.026-0.135-0.013-0.275 0.039-0.404l3.059 1.235c0.187-0.463 0.235-0.971 0.141-1.46l-3.239 0.628zM21.364 11.682c0.052-0.13 0.144-0.247 0.269-0.333l1.865 2.721c0.418-0.287 0.738-0.689 0.925-1.153l-3.059-1.235zM21.633 11.349c0.126-0.086 0.278-0.135 0.438-0.135v3.299c0.512 0 1.009-0.156 1.427-0.443l-1.865-2.721zM22.070 11.214h-7.72v3.299h7.72v-3.299zM14.351 11.214c-0.53 0-1.029 0.216-1.391 0.587l2.362 2.303c-0.25 0.257-0.599 0.409-0.971 0.409v-3.299zM12.96 11.801c-0.36 0.369-0.555 0.862-0.555 1.367h3.299c0 0.343-0.133 0.681-0.382 0.936l-2.362-2.303zM12.404 13.168c0 0.505 0.195 0.997 0.555 1.367l2.362-2.303c0.249 0.255 0.382 0.593 0.382 0.936h-3.299zM12.96 14.535c0.362 0.371 0.861 0.587 1.391 0.587v-3.299c0.372 0 0.721 0.152 0.971 0.409l-2.362 2.303zM14.351 15.122h5.79v-3.299h-5.79v3.299zM20.137 15.122c-0.254-0.001-0.489-0.105-0.655-0.276l2.367-2.298c-0.444-0.457-1.056-0.723-1.704-0.724l-0.007 3.299zM19.481 14.846c-0.165-0.17-0.25-0.391-0.25-0.614l3.299 0.006c0.001-0.626-0.24-1.235-0.683-1.691l-2.367 2.298zM19.232 14.232c0-0.222 0.087-0.443 0.252-0.613l2.357 2.308c0.445-0.454 0.688-1.062 0.689-1.689l-3.299-0.006zM19.484 13.619c0.167-0.171 0.403-0.274 0.657-0.274l-0.007 3.299c0.648 0.001 1.261-0.262 1.707-0.717l-2.357-2.308zM20.136 13.346c0.224-0 0.435 0.081 0.596 0.221l-2.159 2.495c0.432 0.374 0.986 0.584 1.565 0.584l-0.002-3.299zM20.732 13.566c0.16 0.138 0.26 0.324 0.292 0.518l-3.255 0.54c0.092 0.553 0.373 1.064 0.804 1.437l2.159-2.495zM21.025 14.090l-0.003-0.018-3.256 0.529 0.003 0.018 3.256-0.529zM21.029 14.12c-0.034-0.254-0.117-0.5-0.246-0.723l-2.857 1.65c-0.089-0.154-0.145-0.322-0.168-0.495l3.271-0.432zM20.783 13.397c-0.129-0.224-0.303-0.422-0.512-0.58l-1.991 2.631c-0.145-0.11-0.265-0.247-0.354-0.4l2.857-1.65zM20.271 12.817c-0.209-0.158-0.45-0.274-0.708-0.338l-0.788 3.203c-0.181-0.044-0.349-0.125-0.494-0.235l1.991-2.631zM19.563 12.479c-0.258-0.064-0.527-0.073-0.789-0.029l0.555 3.252c-0.184 0.031-0.372 0.024-0.553-0.020l0.788-3.203zM18.773 12.451c-0.262 0.045-0.511 0.143-0.732 0.286l1.798 2.766c-0.154 0.1-0.328 0.169-0.512 0.2l-0.555-3.252zM18.041 12.737c-0.221 0.143-0.408 0.329-0.553 0.544l2.734 1.846c-0.1 0.148-0.229 0.276-0.383 0.376l-1.798-2.766zM17.488 13.281c-0.145 0.215-0.245 0.455-0.296 0.706l3.233 0.656c-0.035 0.171-0.103 0.336-0.203 0.483l-2.734-1.846zM17.192 13.987c-0.051 0.251-0.052 0.51-0.004 0.761l3.239-0.624c0.033 0.171 0.032 0.348-0.003 0.519l-3.233-0.656zM17.18 14.701l0.003 0.018 3.256-0.529-0.003-0.018-3.256 0.529zM17.184 14.722c0.114 0.696 0.466 1.336 1.005 1.803l2.161-2.492c0.053 0.046 0.081 0.102 0.089 0.155l-3.255 0.535zM18.188 16.524c0.539 0.468 1.23 0.729 1.949 0.729l-0.001-3.299c0.084-0 0.159 0.031 0.213 0.077l-2.161 2.492zM20.137 17.254c0.805 0 1.569-0.328 2.126-0.898l-2.36-2.306c0.055-0.056 0.138-0.096 0.235-0.096l-0.002 3.299zM22.263 16.356c0.556-0.569 0.861-1.332 0.863-2.119l-3.299-0.006c0-0.060 0.023-0.126 0.077-0.181l2.36 2.306zM23.126 14.234c0-0.61-0.181-1.184-0.493-1.663l-2.763 1.803c-0.029-0.044-0.043-0.094-0.043-0.14h3.299zM21.251 15.122h0.819v-3.299h-0.819v3.299zM22.070 15.122c0.845 0 1.646-0.345 2.231-0.944l-2.362-2.303c0.027-0.028 0.074-0.052 0.131-0.052v3.299zM24.301 14.178c0.583-0.598 0.903-1.4 0.903-2.228h-3.299c0-0.020 0.008-0.048 0.034-0.075l2.362 2.303zM25.204 11.95c0-0.828-0.32-1.63-0.903-2.228l-2.362 2.303c-0.026-0.027-0.034-0.055-0.034-0.075h3.299zM24.301 9.722c-0.584-0.599-1.386-0.944-2.231-0.944v3.299c-0.057 0-0.104-0.024-0.131-0.052l2.362-2.303z"></path>
<path d="M15.852 24.577h-0.615l1.381-3.839h0.669l1.381 3.839h-0.615l-1.085-3.142h-0.030l-1.087 3.142zM15.955 23.074h1.994v0.487h-1.994v-0.487zM22.231 21.987h-0.585c-0.023-0.125-0.064-0.235-0.126-0.33s-0.136-0.176-0.225-0.242c-0.089-0.066-0.188-0.116-0.298-0.15-0.109-0.034-0.224-0.051-0.347-0.051-0.221 0-0.419 0.056-0.594 0.167-0.174 0.111-0.311 0.274-0.412 0.489-0.1 0.215-0.15 0.477-0.15 0.787 0 0.312 0.050 0.576 0.15 0.791 0.101 0.215 0.239 0.377 0.414 0.487s0.372 0.165 0.59 0.165c0.121 0 0.236-0.016 0.345-0.049 0.11-0.034 0.209-0.083 0.298-0.148s0.164-0.144 0.225-0.238c0.062-0.095 0.106-0.204 0.129-0.326l0.585 0.002c-0.031 0.189-0.092 0.362-0.182 0.521-0.089 0.157-0.203 0.294-0.343 0.409-0.139 0.114-0.297 0.202-0.476 0.264s-0.374 0.094-0.585 0.094c-0.332 0-0.629-0.079-0.888-0.236-0.26-0.159-0.465-0.386-0.615-0.68-0.149-0.295-0.223-0.647-0.223-1.055 0-0.41 0.075-0.762 0.225-1.055 0.15-0.295 0.355-0.521 0.615-0.679 0.26-0.159 0.555-0.238 0.887-0.238 0.204 0 0.394 0.029 0.57 0.088 0.177 0.057 0.337 0.142 0.478 0.255 0.141 0.111 0.258 0.247 0.351 0.409 0.092 0.16 0.155 0.343 0.187 0.549z"></path>
</svg>
