<!-- Generated by IcoMoon.io -->
<svg version="1.1" xmlns="http://www.w3.org/2000/svg" width="1463" height="1024" viewBox="0 0 1463 1024">
<g id="icomoon-ignore">
</g>
<path fill="#000" d="M83.455 57.589h397.094c3.357 0 6.51-1.278 8.891-3.599l38.148-37.217c11.088-10.816 25.827-16.773 41.509-16.773h602.13c28.039 0 54.071 13.587 69.639 36.353l72.166 105.604c10.236 14.991 11.176 34.157 2.469 50.048-8.704 15.891-25.604 25.753-44.069 25.753h-310.338v30.594h158.943c42.134 0 80.040 24.421 96.571 62.232l93.063 212.79 81.521 31.817c43.535 16.991 71.665 57.516 71.665 103.263v197.061c0 29.389-24.517 53.307-54.641 53.307h-94.855c-11.030 65.236-69.248 115.178-139.202 115.178-69.95 0-128.168-49.942-139.202-115.178h-518.51c-11.034 65.236-69.252 115.178-139.202 115.178-69.953 0-128.172-49.942-139.204-115.178h-189.47c-26.785 0-48.571-21.252-48.571-47.386v-722.432c0-44.901 37.429-81.416 83.455-81.416zM1174.159 979.010c52.392 0 95.005-41.574 95.005-92.683s-42.613-92.683-95.005-92.683c-52.389 0-95.002 41.574-95.002 92.683s42.613 92.683 95.002 92.683zM961.093 863.832h73.827c0.187-1.134 0.424-2.231 0.647-3.346 0.146-0.757 0.274-1.514 0.443-2.267 0.369-1.766 0.794-3.511 1.236-5.255 0.091-0.362 0.165-0.72 0.274-1.083 0.556-2.103 1.163-4.173 1.81-6.224 0.183-0.596 0.406-1.189 0.607-1.799 0.479-1.441 0.976-2.882 1.496-4.301 0.293-0.757 0.589-1.514 0.903-2.267 0.479-1.243 0.958-2.487 1.492-3.708 0.333-0.812 0.702-1.602 1.072-2.395 0.516-1.17 1.031-2.304 1.587-3.452 0.406-0.812 0.794-1.602 1.218-2.414 0.552-1.097 1.141-2.213 1.733-3.291 0.424-0.794 0.867-1.584 1.309-2.377 0.607-1.079 1.254-2.158 1.902-3.222 0.461-0.757 0.922-1.51 1.382-2.267 0.702-1.079 1.401-2.139 2.121-3.222 0.479-0.702 0.94-1.404 1.419-2.088 0.794-1.134 1.624-2.249 2.472-3.365 0.424-0.592 0.848-1.189 1.291-1.763 1.145-1.477 2.308-2.896 3.489-4.319 0.165-0.216 0.329-0.432 0.516-0.647 1.364-1.62 2.787-3.204 4.224-4.751 0.443-0.486 0.903-0.936 1.364-1.404 1.017-1.061 2.030-2.125 3.083-3.167 0.589-0.578 1.2-1.134 1.788-1.693 0.94-0.9 1.898-1.799 2.878-2.681 0.644-0.574 1.309-1.152 1.975-1.726 0.958-0.83 1.916-1.638 2.893-2.45l2.107-1.671c0.976-0.775 1.971-1.532 2.97-2.286 0.717-0.541 1.456-1.079 2.194-1.602 1.013-0.739 2.048-1.441 3.098-2.161 0.739-0.486 1.477-0.987 2.216-1.474 1.086-0.72 2.213-1.404 3.321-2.088 0.717-0.432 1.437-0.881 2.176-1.313 1.218-0.72 2.472-1.404 3.727-2.088 0.644-0.358 1.273-0.72 1.898-1.061 1.788-0.936 3.58-1.836 5.387-2.703 0.146-0.051 0.278-0.124 0.424-0.197 1.957-0.918 3.95-1.799 5.939-2.626 0.647-0.271 1.309-0.505 1.957-0.775 1.364-0.538 2.75-1.079 4.151-1.602 0.794-0.285 1.605-0.538 2.399-0.827 1.273-0.432 2.545-0.863 3.836-1.262 0.867-0.267 1.733-0.519 2.619-0.772 1.254-0.362 2.509-0.72 3.763-1.046 0.903-0.234 1.807-0.464 2.732-0.684 1.254-0.304 2.509-0.574 3.781-0.845 0.922-0.197 1.843-0.395 2.783-0.574 1.291-0.234 2.586-0.468 3.895-0.666 0.922-0.165 1.825-0.307 2.765-0.432 1.346-0.201 2.714-0.362 4.096-0.523 0.867-0.091 1.752-0.216 2.637-0.289 1.514-0.143 3.046-0.252 4.575-0.34 0.757-0.055 1.496-0.128 2.253-0.146 2.304-0.124 4.593-0.179 6.916-0.179 2.326 0 4.612 0.055 6.919 0.179 0.757 0.018 1.492 0.091 2.249 0.146 1.532 0.088 3.065 0.197 4.575 0.34 0.885 0.073 1.77 0.197 2.637 0.289 1.386 0.161 2.75 0.322 4.096 0.523 0.944 0.124 1.847 0.267 2.768 0.432 1.309 0.197 2.6 0.432 3.891 0.666 0.94 0.179 1.865 0.377 2.787 0.574 1.273 0.271 2.527 0.541 3.781 0.845 0.922 0.219 1.825 0.45 2.728 0.684 1.254 0.325 2.509 0.684 3.763 1.046 0.889 0.252 1.755 0.505 2.622 0.772 1.291 0.399 2.564 0.83 3.836 1.262 0.794 0.289 1.605 0.541 2.399 0.827 1.401 0.523 2.783 1.064 4.151 1.602 0.644 0.271 1.309 0.505 1.953 0.775 1.993 0.827 3.986 1.708 5.939 2.626 0.15 0.073 0.278 0.146 0.424 0.197 1.81 0.867 3.599 1.766 5.387 2.703 0.629 0.34 1.254 0.702 1.902 1.061 1.254 0.684 2.509 1.368 3.727 2.088 0.739 0.432 1.456 0.881 2.176 1.313 1.108 0.684 2.231 1.368 3.321 2.088 0.739 0.486 1.474 0.987 2.213 1.474 1.053 0.72 2.085 1.423 3.101 2.161 0.735 0.523 1.474 1.061 2.194 1.602 0.995 0.753 1.993 1.51 2.97 2.286l2.103 1.671c0.976 0.812 1.938 1.62 2.896 2.45 0.666 0.574 1.328 1.152 1.975 1.726 0.976 0.881 1.935 1.781 2.878 2.681 0.589 0.56 1.196 1.115 1.788 1.693 1.050 1.042 2.066 2.107 3.079 3.167 0.461 0.468 0.922 0.918 1.368 1.404 1.437 1.547 2.856 3.131 4.224 4.751 0.183 0.216 0.347 0.432 0.516 0.647 1.181 1.423 2.341 2.842 3.485 4.319 0.443 0.574 0.867 1.17 1.291 1.763 0.848 1.115 1.679 2.231 2.472 3.365 0.479 0.684 0.94 1.386 1.423 2.088 0.717 1.083 1.419 2.143 2.121 3.222 0.461 0.757 0.922 1.51 1.382 2.267 0.647 1.064 1.291 2.143 1.902 3.222 0.443 0.794 0.885 1.584 1.309 2.377 0.589 1.079 1.181 2.194 1.733 3.291 0.424 0.812 0.812 1.602 1.218 2.414 0.552 1.148 1.068 2.282 1.587 3.452 0.366 0.794 0.735 1.584 1.068 2.395 0.534 1.221 1.017 2.465 1.496 3.708 0.311 0.753 0.607 1.51 0.903 2.267 0.516 1.419 1.013 2.86 1.492 4.301 0.205 0.611 0.424 1.203 0.611 1.799 0.644 2.052 1.254 4.122 1.807 6.224 0.11 0.362 0.187 0.72 0.278 1.083 0.443 1.744 0.867 3.489 1.236 5.255 0.165 0.753 0.296 1.51 0.443 2.267 0.219 1.115 0.461 2.213 0.644 3.346h94.819c4.707 0 8.525-3.727 8.525-8.316v-94.263h-35.972v-44.994h35.972v-57.805c0-27.246-16.75-51.379-42.668-61.491l-86.298-33.671h-326.682v300.54zM961.093 518.298h296.225l-83.123-190.060c-9.278-21.2-30.53-34.895-54.159-34.895h-158.943v224.955zM377.245 979.010c52.389 0 95.002-41.574 95.002-92.683s-42.613-92.683-95.002-92.683c-1.642 0-3.266 0.037-4.89 0.128-43.646 2.158-79.618 33.221-88.178 73.893-0.313 1.51-0.609 3.043-0.848 4.571-0.479 3.057-0.793 6.173-0.959 9.322-0.092 1.584-0.129 3.167-0.129 4.769 0 51.109 42.613 92.683 95.004 92.683zM46.118 716.259h35.972v44.994h-35.972v100.184c0 1.317 1.107 2.395 2.454 2.395h189.434c0.184-1.115 0.424-2.213 0.645-3.313 0.147-0.772 0.276-1.547 0.443-2.319 0.369-1.73 0.775-3.438 1.218-5.131 0.11-0.395 0.184-0.808 0.295-1.207 0.553-2.085 1.162-4.136 1.808-6.188 0.203-0.633 0.424-1.262 0.627-1.872 0.479-1.423 0.959-2.845 1.476-4.231 0.295-0.79 0.609-1.547 0.904-2.319 0.479-1.225 0.978-2.45 1.476-3.653 0.351-0.83 0.719-1.638 1.088-2.447 0.517-1.137 1.033-2.271 1.586-3.405 0.387-0.827 0.812-1.635 1.217-2.447 0.553-1.097 1.125-2.176 1.716-3.273 0.443-0.794 0.885-1.584 1.328-2.377 0.627-1.079 1.254-2.143 1.9-3.204 0.461-0.772 0.922-1.529 1.402-2.286 0.683-1.079 1.384-2.139 2.103-3.185 0.461-0.72 0.941-1.441 1.42-2.125 0.793-1.134 1.623-2.231 2.435-3.328 0.443-0.611 0.885-1.225 1.347-1.818 1.107-1.423 2.232-2.823 3.394-4.209 0.203-0.252 0.388-0.505 0.59-0.739 1.384-1.62 2.786-3.204 4.224-4.751 0.461-0.486 0.922-0.955 1.383-1.441 1.015-1.061 2.029-2.107 3.062-3.131 0.59-0.578 1.199-1.134 1.808-1.712 0.941-0.9 1.882-1.781 2.859-2.662 0.646-0.574 1.328-1.152 1.992-1.744 0.941-0.812 1.9-1.62 2.878-2.414 0.701-0.574 1.402-1.152 2.122-1.708 0.959-0.757 1.955-1.514 2.951-2.267 0.719-0.541 1.457-1.079 2.195-1.602 1.014-0.739 2.048-1.441 3.080-2.143 0.757-0.505 1.494-1.006 2.232-1.492 1.088-0.72 2.195-1.404 3.302-2.070 0.738-0.45 1.457-0.9 2.195-1.331 1.217-0.72 2.454-1.404 3.708-2.088 0.646-0.358 1.273-0.72 1.937-1.061 1.753-0.936 3.524-1.818 5.331-2.666 0.148-0.069 0.295-0.161 0.461-0.234 1.955-0.918 3.948-1.799 5.94-2.626 0.645-0.271 1.31-0.505 1.955-0.775 1.383-0.538 2.749-1.079 4.15-1.602 0.793-0.285 1.605-0.538 2.417-0.827 1.254-0.432 2.527-0.863 3.818-1.262 0.867-0.267 1.753-0.519 2.62-0.772 1.254-0.362 2.509-0.72 3.763-1.046 0.904-0.234 1.808-0.464 2.73-0.684 1.254-0.304 2.509-0.574 3.782-0.845 0.922-0.197 1.845-0.395 2.786-0.574 1.291-0.234 2.582-0.468 3.892-0.666 0.922-0.165 1.826-0.307 2.767-0.432 1.347-0.201 2.712-0.362 4.095-0.523 0.867-0.091 1.753-0.216 2.638-0.289 1.513-0.143 3.044-0.252 4.576-0.34 0.753-0.055 1.492-0.128 2.249-0.146 2.308-0.124 4.593-0.179 6.919-0.179 2.322 0 4.612 0.055 6.916 0.179 0.757 0.018 1.496 0.091 2.253 0.146 1.529 0.088 3.061 0.197 4.571 0.34 0.889 0.073 1.774 0.197 2.64 0.289 1.382 0.161 2.747 0.322 4.096 0.523 0.94 0.124 1.843 0.267 2.765 0.432 1.309 0.197 2.6 0.432 3.895 0.666 0.94 0.179 1.861 0.377 2.783 0.574 1.273 0.271 2.527 0.541 3.781 0.845 0.922 0.219 1.829 0.45 2.732 0.684 1.254 0.325 2.509 0.684 3.763 1.046 0.867 0.252 1.752 0.505 2.619 0.772 1.291 0.399 2.564 0.83 3.818 1.262 0.812 0.289 1.624 0.541 2.417 0.827 1.401 0.523 2.768 1.064 4.151 1.602 0.644 0.271 1.309 0.505 1.957 0.775 1.989 0.827 3.983 1.708 5.939 2.626 0.165 0.073 0.315 0.146 0.461 0.234 1.807 0.848 3.577 1.73 5.332 2.666 0.662 0.34 1.291 0.702 1.935 1.061 1.236 0.684 2.491 1.368 3.708 2.088 0.739 0.432 1.459 0.881 2.194 1.331 1.108 0.666 2.216 1.349 3.302 2.070 0.739 0.486 1.477 0.987 2.235 1.492 1.031 0.702 2.066 1.404 3.079 2.143 0.739 0.523 1.477 1.061 2.194 1.602 0.998 0.753 1.993 1.51 2.951 2.267 0.72 0.556 1.423 1.134 2.121 1.708 0.98 0.794 1.938 1.602 2.878 2.432 0.666 0.574 1.346 1.152 1.993 1.726 0.976 0.881 1.92 1.781 2.878 2.681 0.589 0.56 1.2 1.115 1.788 1.693 1.035 1.024 2.066 2.088 3.083 3.149 0.443 0.468 0.922 0.936 1.364 1.423 1.437 1.547 2.842 3.131 4.224 4.751 0.183 0.234 0.369 0.468 0.552 0.684 1.163 1.404 2.326 2.823 3.43 4.283 0.464 0.574 0.889 1.17 1.331 1.763 0.83 1.115 1.66 2.231 2.454 3.365 0.479 0.684 0.94 1.404 1.419 2.107 0.72 1.064 1.419 2.125 2.103 3.204 0.479 0.757 0.94 1.51 1.401 2.267 0.647 1.064 1.291 2.143 1.902 3.222 0.443 0.794 0.885 1.584 1.309 2.377 0.607 1.079 1.181 2.194 1.752 3.291 0.406 0.812 0.794 1.602 1.2 2.414 0.552 1.148 1.072 2.3 1.587 3.452 0.369 0.794 0.739 1.584 1.068 2.395 0.538 1.221 1.017 2.465 1.514 3.708 0.296 0.753 0.589 1.51 0.885 2.267 0.534 1.437 1.017 2.878 1.496 4.334 0.201 0.596 0.424 1.17 0.607 1.766 0.647 2.052 1.254 4.14 1.829 6.224 0.073 0.325 0.146 0.666 0.219 0.991 0.461 1.781 0.885 3.562 1.273 5.361 0.168 0.72 0.296 1.459 0.424 2.198 0.223 1.134 0.461 2.249 0.666 3.401h398.493v-668.57c0-12.417 10.331-22.495 23.058-22.495h333.396c0.571 0 2.326 0 3.412-1.998 1.090-1.98 0.128-3.402-0.201-3.851l-72.148-105.603c-6.992-10.222-18.67-16.323-31.269-16.323h-602.13c-3.357 0-6.513 1.278-8.894 3.599l-38.148 37.217c-11.085 10.816-25.827 16.773-41.505 16.773h-397.094c-20.587 0-37.337 16.341-37.337 36.425v577.254z"></path>
<path fill="#000" d="M643.705 230.331h145.861c29.462 0 53.442 23.377 53.442 52.135v481.46c0 12.416-10.328 22.495-23.058 22.495h-206.607c-12.731 0-23.058-10.079-23.058-22.495v-481.46c-0.018-28.758 23.943-52.135 53.42-52.135zM636.383 741.431h160.49v-264.55h-160.49v264.55zM636.383 431.89h160.49v-149.424c0-3.941-3.284-7.145-7.325-7.145h-145.861c-4.037 0-7.322 3.204-7.322 7.145l0.018 149.424z"></path>
</svg>
