<!-- Generated by IcoMoon.io -->
<svg version="1.1" xmlns="http://www.w3.org/2000/svg" width="38" height="32" viewBox="0 0 38 32">
<path fill="none" stroke-linejoin="round" stroke-linecap="round" stroke-miterlimit="4" stroke-width="0.5938" stroke="#000" d="M21.443 14.68h-5.278c-0.731 0-1.32-0.589-1.32-1.32v-3.299c0-0.731 0.589-1.32 1.32-1.32h5.278c0.731 0 1.32 0.589 1.32 1.32v3.299c0 0.731-0.589 1.32-1.32 1.32z"></path>
<path fill="none" stroke-linejoin="round" stroke-linecap="round" stroke-miterlimit="4" stroke-width="0.5938" stroke="#000" d="M17.485 16h2.639"></path>
<path fill="none" stroke-linejoin="round" stroke-linecap="round" stroke-miterlimit="4" stroke-width="0.5938" stroke="#000" d="M18.804 8.742l1.979-1.979"></path>
<path fill="none" stroke-linejoin="round" stroke-linecap="round" stroke-miterlimit="4" stroke-width="0.5938" stroke="#000" d="M18.804 8.742l-1.979-1.979"></path>
<path d="M15.47 21.237v-0.499h2.971v0.499h-1.198v3.34h-0.577v-3.34h-1.196zM19.433 20.738l1.068 3.127h0.043l1.068-3.127h0.626l-1.381 3.839h-0.669l-1.381-3.839h0.626z"></path>
</svg>
