<!-- Generated by IcoMoon.io -->
<svg version="1.1" xmlns="http://www.w3.org/2000/svg" width="38" height="32" viewBox="0 0 38 32">
<path fill="none" stroke-linejoin="round" stroke-linecap="round" stroke-miterlimit="4" stroke-width="0.6598" stroke="#000" d="M15.615 7.863l1.1 1.1M19.794 8.962c-0.41-0.402-0.961-0.625-1.535-0.622s-1.123 0.232-1.529 0.638c-0.406 0.406-0.635 0.955-0.638 1.529s0.221 1.125 0.622 1.535M20.454 8.302l-4.399 4.399M20.014 13.581v0.004M18.254 13.141v0.004M19.574 11.821v0.004M20.893 10.502v0.004M18.694 14.9v0.004M21.333 12.261v0.004M22.653 10.942v0.004"></path>
<path d="M6.807 21.747c-0.020-0.177-0.102-0.315-0.247-0.412-0.145-0.099-0.327-0.148-0.547-0.148-0.157 0-0.294 0.025-0.409 0.075-0.115 0.049-0.204 0.116-0.268 0.202-0.062 0.085-0.094 0.182-0.094 0.291 0 0.091 0.021 0.17 0.064 0.236 0.044 0.066 0.101 0.122 0.171 0.167 0.071 0.044 0.147 0.081 0.229 0.111 0.081 0.029 0.159 0.052 0.234 0.071l0.375 0.098c0.122 0.030 0.248 0.071 0.377 0.122s0.248 0.119 0.358 0.202c0.11 0.084 0.199 0.187 0.266 0.311 0.069 0.124 0.103 0.272 0.103 0.444 0 0.217-0.056 0.41-0.169 0.579-0.111 0.169-0.273 0.302-0.485 0.399-0.211 0.098-0.467 0.146-0.767 0.146-0.287 0-0.536-0.046-0.746-0.137s-0.374-0.221-0.493-0.388c-0.119-0.169-0.184-0.369-0.197-0.6h0.581c0.011 0.139 0.056 0.254 0.135 0.347 0.080 0.091 0.182 0.159 0.306 0.204 0.125 0.044 0.262 0.066 0.41 0.066 0.164 0 0.309-0.026 0.437-0.077 0.129-0.052 0.23-0.125 0.304-0.217 0.074-0.094 0.111-0.203 0.111-0.328 0-0.114-0.032-0.207-0.097-0.279-0.064-0.072-0.151-0.133-0.261-0.18-0.109-0.047-0.232-0.089-0.369-0.126l-0.454-0.124c-0.307-0.084-0.551-0.207-0.731-0.369-0.179-0.162-0.268-0.377-0.268-0.645 0-0.221 0.060-0.414 0.18-0.579s0.282-0.293 0.487-0.384c0.205-0.092 0.436-0.139 0.694-0.139 0.26 0 0.489 0.046 0.688 0.137 0.2 0.091 0.357 0.217 0.472 0.377 0.115 0.159 0.175 0.341 0.18 0.547h-0.559zM8.625 22.868v1.709h-0.56v-3.839h0.553v1.428h0.036c0.068-0.155 0.171-0.278 0.309-0.369s0.32-0.137 0.544-0.137c0.197 0 0.37 0.041 0.517 0.122 0.149 0.081 0.264 0.202 0.345 0.364 0.082 0.16 0.124 0.36 0.124 0.6v1.831h-0.56v-1.764c0-0.211-0.054-0.375-0.163-0.491-0.109-0.117-0.26-0.176-0.454-0.176-0.132 0-0.251 0.028-0.356 0.084-0.104 0.056-0.186 0.139-0.246 0.247-0.059 0.107-0.088 0.237-0.088 0.39zM12.453 24.635c-0.27 0-0.505-0.062-0.707-0.186s-0.357-0.297-0.469-0.519c-0.111-0.222-0.167-0.482-0.167-0.78 0-0.299 0.056-0.56 0.167-0.784s0.267-0.397 0.469-0.521c0.201-0.124 0.437-0.186 0.707-0.186s0.505 0.062 0.707 0.186c0.201 0.124 0.357 0.297 0.469 0.521s0.167 0.485 0.167 0.784c0 0.297-0.056 0.557-0.167 0.78s-0.267 0.395-0.469 0.519c-0.201 0.124-0.437 0.186-0.707 0.186zM12.455 24.165c0.175 0 0.32-0.046 0.435-0.139s0.2-0.216 0.255-0.369c0.056-0.154 0.084-0.323 0.084-0.508 0-0.184-0.028-0.352-0.084-0.506-0.055-0.155-0.14-0.279-0.255-0.373s-0.26-0.141-0.435-0.141c-0.176 0-0.322 0.047-0.439 0.141-0.115 0.094-0.201 0.218-0.257 0.373-0.055 0.154-0.082 0.322-0.082 0.506 0 0.185 0.027 0.354 0.082 0.508 0.056 0.154 0.142 0.277 0.257 0.369 0.116 0.092 0.262 0.139 0.439 0.139zM14.957 24.577l-0.847-2.879h0.579l0.564 2.114h0.028l0.566-2.114h0.579l0.562 2.105h0.028l0.56-2.105h0.579l-0.845 2.879h-0.572l-0.585-2.079h-0.043l-0.585 2.079h-0.57zM19.842 24.635c-0.284 0-0.528-0.061-0.733-0.182-0.204-0.122-0.361-0.294-0.472-0.515-0.11-0.222-0.165-0.483-0.165-0.782 0-0.295 0.055-0.555 0.165-0.78 0.111-0.225 0.266-0.401 0.465-0.527 0.2-0.126 0.434-0.189 0.701-0.189 0.162 0 0.32 0.027 0.472 0.081s0.289 0.138 0.41 0.253c0.121 0.115 0.217 0.264 0.287 0.448 0.070 0.182 0.105 0.404 0.105 0.665v0.199h-2.289v-0.42h1.739c0-0.147-0.030-0.278-0.090-0.392-0.060-0.115-0.144-0.206-0.253-0.272-0.107-0.066-0.234-0.099-0.379-0.099-0.157 0-0.295 0.039-0.412 0.116-0.116 0.076-0.206 0.176-0.27 0.3-0.062 0.122-0.094 0.256-0.094 0.399v0.328c0 0.192 0.034 0.356 0.101 0.491 0.069 0.135 0.164 0.238 0.287 0.309 0.122 0.070 0.266 0.105 0.429 0.105 0.106 0 0.203-0.015 0.291-0.045 0.087-0.031 0.163-0.078 0.227-0.139s0.112-0.137 0.146-0.227l0.53 0.096c-0.043 0.156-0.119 0.293-0.229 0.41-0.109 0.116-0.246 0.207-0.41 0.272-0.164 0.064-0.351 0.096-0.56 0.096zM21.699 24.577v-2.879h0.542v0.457h0.030c0.052-0.155 0.145-0.277 0.277-0.366 0.134-0.090 0.285-0.135 0.454-0.135 0.035 0 0.076 0.001 0.124 0.004 0.049 0.003 0.087 0.006 0.114 0.009v0.536c-0.023-0.006-0.062-0.013-0.12-0.021-0.058-0.009-0.115-0.013-0.172-0.013-0.132 0-0.251 0.028-0.354 0.084-0.102 0.055-0.184 0.132-0.244 0.231-0.060 0.097-0.090 0.209-0.090 0.334v1.758h-0.56zM25.012 20.559l-1.237 4.596h-0.5l1.237-4.596h0.5zM26.3 24.577l-1.065-3.839h0.609l0.748 2.973h0.036l0.778-2.973h0.604l0.778 2.975h0.036l0.746-2.975h0.611l-1.067 3.839h-0.583l-0.808-2.875h-0.030l-0.808 2.875h-0.585zM33.706 21.987h-0.585c-0.022-0.125-0.064-0.235-0.126-0.33s-0.136-0.176-0.225-0.242c-0.089-0.066-0.188-0.116-0.298-0.15-0.109-0.034-0.224-0.051-0.347-0.051-0.221 0-0.419 0.056-0.594 0.167-0.174 0.111-0.311 0.274-0.412 0.489-0.1 0.215-0.15 0.477-0.15 0.787 0 0.312 0.050 0.576 0.15 0.791 0.101 0.215 0.239 0.377 0.414 0.487s0.372 0.165 0.59 0.165c0.121 0 0.236-0.016 0.345-0.049 0.11-0.034 0.209-0.083 0.298-0.148s0.164-0.144 0.225-0.238c0.062-0.095 0.106-0.204 0.129-0.326l0.585 0.002c-0.031 0.189-0.092 0.362-0.182 0.521-0.089 0.157-0.203 0.294-0.343 0.409-0.139 0.114-0.297 0.202-0.476 0.264s-0.374 0.094-0.585 0.094c-0.332 0-0.629-0.079-0.888-0.236-0.26-0.159-0.465-0.386-0.615-0.68-0.149-0.295-0.223-0.647-0.223-1.055 0-0.41 0.075-0.762 0.225-1.055 0.15-0.295 0.355-0.521 0.615-0.679 0.26-0.159 0.555-0.238 0.887-0.238 0.204 0 0.394 0.029 0.57 0.088 0.177 0.057 0.337 0.142 0.478 0.255 0.141 0.111 0.258 0.247 0.351 0.409 0.092 0.16 0.155 0.343 0.187 0.549z"></path>
</svg>
