<!-- Generated by IcoMoon.io -->
<svg version="1.1" xmlns="http://www.w3.org/2000/svg" width="39" height="32" viewBox="0 0 39 32">
<path fill="none" stroke-linejoin="round" stroke-linecap="round" stroke-miterlimit="4" stroke-width="0.5938" stroke="#000" d="M21.498 10.942h0.66c0.175 0 0.343-0.069 0.467-0.193s0.193-0.292 0.193-0.467c0-0.175-0.070-0.343-0.193-0.467s-0.292-0.193-0.467-0.193h-0.66v2.199M21.498 13.581v1.759h0.44c0.233 0 0.457-0.093 0.622-0.258s0.258-0.389 0.258-0.622c0-0.233-0.093-0.457-0.258-0.622s-0.389-0.258-0.622-0.258h-0.44zM15.34 8.302c0 0.233 0.093 0.457 0.258 0.622s0.389 0.258 0.622 0.258c0.233 0 0.457-0.093 0.622-0.258s0.258-0.389 0.258-0.622c0-0.233-0.093-0.457-0.258-0.622s-0.389-0.258-0.622-0.258c-0.233 0-0.457 0.093-0.622 0.258s-0.258 0.389-0.258 0.622z"></path>
<path fill="none" stroke-linejoin="round" stroke-linecap="round" stroke-miterlimit="4" stroke-width="0.5938" stroke="#000" d="M16.22 9.182v1.32c0 0.117 0.046 0.229 0.129 0.311s0.194 0.129 0.311 0.129h1.32M17.979 10.942v3.079c0 0.117 0.046 0.229 0.129 0.311s0.194 0.129 0.311 0.129h1.32M17.979 10.942h1.759"></path>
<path d="M7.099 24.577h-0.615l1.381-3.839h0.669l1.381 3.839h-0.615l-1.085-3.142h-0.030l-1.087 3.142zM7.202 23.074h1.994v0.487h-1.994v-0.487zM12.25 23.383v-1.685h0.562v2.879h-0.551v-0.499h-0.030c-0.066 0.154-0.172 0.282-0.319 0.384-0.145 0.101-0.326 0.152-0.542 0.152-0.185 0-0.349-0.041-0.491-0.122-0.141-0.082-0.252-0.204-0.334-0.366-0.080-0.161-0.12-0.36-0.12-0.598v-1.831h0.56v1.764c0 0.196 0.054 0.352 0.163 0.469s0.25 0.174 0.424 0.174c0.105 0 0.209-0.026 0.313-0.079 0.105-0.052 0.192-0.132 0.261-0.238 0.070-0.106 0.104-0.241 0.103-0.405zM14.909 21.698v0.45h-1.573v-0.45h1.573zM13.758 21.008h0.56v2.724c0 0.109 0.016 0.191 0.049 0.246 0.033 0.054 0.074 0.091 0.126 0.111 0.053 0.019 0.109 0.028 0.171 0.028 0.045 0 0.084-0.003 0.118-0.009s0.060-0.011 0.079-0.015l0.101 0.463c-0.033 0.012-0.079 0.025-0.139 0.038-0.060 0.014-0.135 0.021-0.225 0.022-0.147 0.003-0.285-0.024-0.412-0.079s-0.231-0.14-0.309-0.255c-0.079-0.115-0.118-0.259-0.118-0.433v-2.84zM16.711 24.635c-0.27 0-0.505-0.062-0.707-0.186s-0.357-0.297-0.469-0.519c-0.111-0.222-0.167-0.482-0.167-0.78 0-0.299 0.056-0.56 0.167-0.784s0.267-0.397 0.469-0.521c0.201-0.124 0.437-0.186 0.707-0.186s0.505 0.062 0.707 0.186c0.201 0.124 0.357 0.297 0.469 0.521s0.167 0.485 0.167 0.784c0 0.297-0.056 0.557-0.167 0.78s-0.267 0.395-0.469 0.519c-0.201 0.124-0.437 0.186-0.707 0.186zM16.712 24.165c0.175 0 0.32-0.046 0.435-0.139s0.2-0.216 0.255-0.369c0.056-0.154 0.084-0.323 0.084-0.508 0-0.184-0.028-0.352-0.084-0.506-0.055-0.155-0.14-0.279-0.255-0.373s-0.26-0.141-0.435-0.141c-0.176 0-0.322 0.047-0.439 0.141-0.115 0.094-0.201 0.218-0.257 0.373-0.055 0.154-0.082 0.322-0.082 0.506 0 0.185 0.027 0.354 0.082 0.508 0.056 0.154 0.142 0.277 0.257 0.369 0.116 0.092 0.262 0.139 0.439 0.139zM18.678 24.577v-2.879h0.538v0.469h0.036c0.060-0.159 0.158-0.282 0.294-0.371 0.136-0.090 0.299-0.135 0.489-0.135 0.192 0 0.354 0.045 0.484 0.135 0.131 0.090 0.228 0.214 0.291 0.371h0.030c0.069-0.154 0.178-0.276 0.328-0.367 0.15-0.092 0.329-0.139 0.536-0.139 0.261 0 0.474 0.082 0.639 0.246 0.166 0.164 0.249 0.41 0.249 0.74v1.931h-0.56v-1.878c0-0.195-0.053-0.336-0.159-0.424s-0.233-0.131-0.381-0.131c-0.182 0-0.324 0.056-0.425 0.169-0.101 0.111-0.152 0.254-0.152 0.429v1.835h-0.559v-1.914c0-0.156-0.049-0.282-0.146-0.377s-0.224-0.142-0.381-0.142c-0.106 0-0.204 0.028-0.294 0.084-0.089 0.055-0.161 0.132-0.216 0.231-0.054 0.099-0.081 0.213-0.081 0.343v1.775h-0.56zM24.181 24.641c-0.182 0-0.347-0.034-0.495-0.101-0.147-0.069-0.264-0.168-0.351-0.298-0.085-0.13-0.127-0.289-0.127-0.478 0-0.162 0.031-0.296 0.094-0.401s0.147-0.188 0.253-0.249c0.106-0.061 0.225-0.107 0.356-0.139s0.265-0.055 0.401-0.071c0.172-0.020 0.312-0.036 0.42-0.049 0.107-0.014 0.186-0.036 0.234-0.066s0.073-0.079 0.073-0.146v-0.013c0-0.164-0.046-0.291-0.139-0.381-0.091-0.090-0.227-0.135-0.409-0.135-0.189 0-0.337 0.042-0.446 0.126-0.107 0.082-0.182 0.174-0.223 0.276l-0.527-0.12c0.062-0.175 0.154-0.316 0.274-0.424 0.121-0.109 0.261-0.187 0.418-0.236 0.157-0.050 0.323-0.075 0.497-0.075 0.115 0 0.237 0.014 0.366 0.041 0.13 0.026 0.251 0.075 0.364 0.146 0.114 0.071 0.207 0.173 0.279 0.306 0.072 0.131 0.109 0.302 0.109 0.512v1.912h-0.547v-0.394h-0.022c-0.036 0.072-0.091 0.144-0.163 0.214s-0.166 0.128-0.279 0.174c-0.114 0.046-0.25 0.069-0.409 0.069zM24.303 24.191c0.155 0 0.287-0.031 0.397-0.092 0.111-0.061 0.196-0.141 0.253-0.24 0.059-0.1 0.088-0.207 0.088-0.321v-0.371c-0.020 0.020-0.059 0.039-0.116 0.056-0.056 0.016-0.121 0.031-0.193 0.043-0.072 0.011-0.143 0.022-0.212 0.032-0.069 0.009-0.126 0.016-0.172 0.023-0.109 0.014-0.208 0.037-0.298 0.069-0.089 0.032-0.16 0.079-0.214 0.141-0.052 0.060-0.079 0.14-0.079 0.24 0 0.139 0.051 0.244 0.154 0.315 0.102 0.070 0.233 0.105 0.392 0.105zM27.692 21.698v0.45h-1.573v-0.45h1.573zM26.541 21.008h0.56v2.724c0 0.109 0.016 0.191 0.049 0.246 0.032 0.054 0.074 0.091 0.126 0.111 0.052 0.019 0.109 0.028 0.171 0.028 0.045 0 0.084-0.003 0.118-0.009s0.060-0.011 0.079-0.015l0.101 0.463c-0.032 0.012-0.079 0.025-0.139 0.038-0.060 0.014-0.135 0.021-0.225 0.022-0.147 0.003-0.285-0.024-0.412-0.079s-0.231-0.14-0.309-0.255c-0.079-0.115-0.118-0.259-0.118-0.433v-2.84zM28.312 24.577v-2.879h0.56v2.879h-0.56zM28.595 21.254c-0.098 0-0.181-0.032-0.251-0.097-0.069-0.066-0.103-0.145-0.103-0.236 0-0.092 0.034-0.171 0.103-0.236 0.070-0.066 0.154-0.099 0.251-0.099s0.181 0.033 0.249 0.099c0.070 0.065 0.105 0.144 0.105 0.236 0 0.091-0.035 0.17-0.105 0.236-0.069 0.065-0.152 0.097-0.249 0.097zM30.84 24.635c-0.279 0-0.519-0.063-0.72-0.189-0.2-0.127-0.354-0.303-0.461-0.527s-0.161-0.48-0.161-0.769c0-0.292 0.055-0.55 0.165-0.774 0.11-0.225 0.265-0.401 0.465-0.527s0.435-0.189 0.707-0.189c0.219 0 0.414 0.041 0.585 0.122 0.171 0.080 0.309 0.192 0.414 0.337 0.106 0.145 0.169 0.314 0.189 0.508h-0.545c-0.030-0.135-0.099-0.251-0.206-0.349-0.106-0.098-0.249-0.146-0.427-0.146-0.156 0-0.293 0.041-0.41 0.124-0.116 0.081-0.207 0.197-0.272 0.349-0.065 0.15-0.097 0.327-0.097 0.532 0 0.21 0.032 0.391 0.096 0.544s0.154 0.271 0.27 0.354c0.117 0.084 0.256 0.126 0.414 0.126 0.106 0 0.202-0.019 0.289-0.058 0.087-0.040 0.161-0.097 0.219-0.171 0.060-0.074 0.102-0.162 0.126-0.266h0.545c-0.020 0.186-0.081 0.352-0.182 0.499s-0.237 0.261-0.407 0.345c-0.169 0.084-0.367 0.126-0.594 0.126z"></path>
</svg>
